<svg width="24" height="24" viewBox="0 0 24 24" fill="none" xmlns="http://www.w3.org/2000/svg">
  <path d="M20.4 4L13.2 8.4L14.4 4.8L20.4 4Z" fill="#E2761B"/>
  <path d="M3.6 4L10.8 8.4L9.6 4.8L3.6 4Z" fill="#E4761B"/>
  <path d="M17.6 15.6L16 18.8L20 20L21.6 15.6L17.6 15.6Z" fill="#E4761B"/>
  <path d="M2.4 15.6L4 20L8 18.8L6.4 15.6L2.4 15.6Z" fill="#E4761B"/>
  <path d="M7.6 10.8L6.4 13.2L10.8 13.6L10.4 8.8L7.6 10.8Z" fill="#E4761B"/>
  <path d="M16.4 10.8L13.6 8.8L13.2 13.6L17.6 13.2L16.4 10.8Z" fill="#E4761B"/>
  <path d="M8 18.8L10.8 17.6L8.8 15.6L8 18.8Z" fill="#E4761B"/>
  <path d="M13.2 17.6L16 18.8L15.2 15.6L13.2 17.6Z" fill="#E4761B"/>
  <path d="M16 18.8L13.2 17.6L13.6 19.6L13.6 20L16 18.8Z" fill="#D7C1B3"/>
  <path d="M8 18.8L10.4 20L10.4 19.6L10.8 17.6L8 18.8Z" fill="#D7C1B3"/>
  <path d="M10.4 15.2L8.8 14.8L10 14.4L10.4 15.2Z" fill="#233447"/>
  <path d="M13.6 15.2L14 14.4L15.2 14.8L13.6 15.2Z" fill="#233447"/>
  <path d="M8 18.8L8.8 15.6L6.4 15.6L8 18.8Z" fill="#CD6116"/>
  <path d="M15.2 15.6L16 18.8L17.6 15.6L15.2 15.6Z" fill="#CD6116"/>
  <path d="M17.6 13.2L13.2 13.6L13.6 15.2L14 14.4L15.2 14.8L17.6 13.2Z" fill="#CD6116"/>
  <path d="M8.8 14.8L10 14.4L10.4 15.2L10.8 13.6L6.4 13.2L8.8 14.8Z" fill="#CD6116"/>
  <path d="M6.4 13.2L10.8 13.6L10.4 8.8L7.6 10.8L6.4 13.2Z" fill="#E4751F"/>
  <path d="M13.2 8.8L13.6 13.6L17.6 13.2L16.4 10.8L13.2 8.8Z" fill="#E4751F"/>
  <path d="M13.6 13.6L13.2 8.8L12 8.4L10.8 13.6L10.4 15.2L10.8 17.6L13.2 17.6L13.6 15.2L13.6 13.6Z" fill="#F6851B"/>
  <path d="M12 8.4L10.8 8.8L10.4 13.6L10.8 13.6L12 8.4Z" fill="#F6851B"/>
  <path d="M12 8.4L13.2 8.8L13.6 13.6L13.2 13.6L12 8.4Z" fill="#F6851B"/>
</svg> 